<svg xmlns="http://www.w3.org/2000/svg" fill="none" viewBox="0 0 75 75"><path fill="#034694" d="M74.917 37.49c.026-.892.26-13.63-7.278-21.923-.335-.741-1.924-3.728-7.051-7.38a52.455 52.455 0 0 0-7.219-4.703l-.01-.005C53.04 3.307 46.787 0 39.2 0c-.577 0-1.147.034-1.71.072v-.01C31.701-.064 25.954 1.425 22.49 2.99c-3.073 1.387-6.484 3.713-6.73 3.893-4.255 2.38-12.324 11.931-12.963 16.993-2.578 3.296-4.733 18.102.005 27.12 3.323 12.534 15.83 18.806 16.825 19.288.605.386 7.421 4.6 15.795 4.6.351 0 2.475.117 3.233.117 9.05 0 22.463-6.38 25.27-11.377 7.714-5.643 11.713-20.184 10.99-26.134zm-55.22 18.828c-3.586-5.801-5.63-13.381-6.067-15.122 1.135-1.702 6.733-9.956 9.923-12.44 1.806.332 9.349 1.717 16.463 3.005.893 2.316 4.815 12.536 5.937 16.48-1.237 1.468-6.099 7.128-10.885 11.56-5.081.024-13.723-2.907-15.371-3.483zm45.082-40.593c-.015.562-.149 2.562-1.106 4.858-1.901-.97-6.68-3.05-13.23-3.402-.991-1.464-4.721-6.567-10.612-10.107.806-1.578 1.928-3.502 2.585-4.088.212-.06.542-.115 1.045-.115 3.158 0 8.616 2.069 9.09 2.253.505.266 10.314 5.548 12.228 10.6zm-52.563 24.29c-4.279-.73-6.823-2.06-7.583-2.51-1.59-5.772-.31-12.01-.112-12.903 1.57-2.807 6.04-9.963 8.989-11.322 3.056-.624 6.867.151 8.42.53-.147 2.018-.428 7.658.407 13.577-3.383 2.723-8.736 10.559-10.121 12.627zm24.89-38.103c.96.072 2.368.282 3.333.568-.962 1.28-1.948 3.177-2.415 4.115-1.962.321-9.416 1.746-15.263 5.537-1.179-.312-4.739-1.146-8.11-.858.835-1.617 2.082-2.812 2.216-2.934.464-.333 9.391-6.579 20.239-6.444v.016zm23.87 47.616c-1.463-.06-7.098-.381-13.277-1.832-1.183-4.128-5.092-14.305-5.986-16.62a695.72 695.72 0 0 1 8.66-12.068c7.11.39 12.102 2.984 13.069 3.525 4.118 6.624 5.022 13.389 5.146 14.519-2.188 6.807-6.514 11.39-7.612 12.476zM2.067 33.148a24.34 24.34 0 0 0 .818 4.896 14.67 14.67 0 0 0-.853 3.314 41.297 41.297 0 0 1 .035-8.21zm12.055 29.198c1.885-1.816 4.21-3.583 5.11-4.25 2.038.717 10.405 3.546 15.739 3.546.909 1.218 3.88 5.034 7.522 7.952-2.267 2.219-5.542 3.266-6.12 3.44-10.16.272-20.053-5.438-22.25-10.688zM40.952 73.02c1.152-.672 2.354-1.555 3.347-2.674 1.622-.224 8.579-1.421 14.867-6.04.415.045 1.098.1 1.862.079-3.773 3.696-12.977 7.825-20.076 8.635zm19.28-10.47c2.258-5.885 2.162-10.322 2.051-11.74 1.24-1.215 5.495-5.748 7.856-12.64 1.273.212 2.1.535 2.493.717.136.5.363 1.655.235 3.406-.963 6.303-4.285 15.75-10.105 19.926-.585.298-1.615.363-2.53.331z"/></svg>