<svg xmlns="http://www.w3.org/2000/svg" fill="none" viewBox="0 0 75 75"><path fill="#034694" d="M24.854 48.877c-.25.605-.25 1.202-.25 1.803.25 1.918 1.65 3.327 3.288 3.301h4.044v17.717c0 1.803-1.263 3.302-2.782 3.302h-8.6c-.735-.009-1.439-.36-1.958-.978-.52-.618-.814-1.454-.82-2.327v-17.71H3.101c-2.275 0-3.794-2.704-2.781-5.108L22.07 2.036c.288-.617.71-1.131 1.222-1.49A2.94 2.94 0 0 1 24.98 0a2.94 2.94 0 0 1 1.69.547c.51.358.933.872 1.22 1.489l9.104 20.718-12.14 26.123zm49.829 0L52.933 2.036A3.725 3.725 0 0 0 51.71.549a2.94 2.94 0 0 0-1.688-.546 2.94 2.94 0 0 0-1.688.546c-.511.357-.933.87-1.221 1.487l-9.36 20.721 12.141 26.116c.253.609.253 1.21.253 1.807-.25 1.918-1.653 3.327-3.287 3.301h-4.05v17.717c.015 1.818 1.25 3.29 2.78 3.302h9.107c.736-.008 1.44-.358 1.962-.975.521-.617.818-1.453.826-2.327V53.985h14.412c2.282 0 3.794-2.704 2.782-5.108h.003z"/></svg>