<svg xmlns="http://www.w3.org/2000/svg" fill="none" viewBox="0 0 75 75"><path fill="#034694" fill-rule="evenodd" d="M75 37.5C75 58.21 58.21 75 37.5 75S0 58.21 0 37.5 16.79 0 37.5 0 75 16.79 75 37.5zm-36.156-9.816c-3.647 1.516-10.938 4.657-21.869 9.42-1.775.705-2.706 1.396-2.79 2.071-.144 1.144 1.287 1.594 3.23 2.203.266.084.541.169.823.263 1.915.622 4.49 1.35 5.828 1.378 1.215.025 2.572-.475 4.068-1.5C38.347 34.622 43.62 31.138 43.95 31.063c.234-.054.56-.122.778.075.219.193.197.562.175.662-.144.603-5.75 5.819-8.656 8.519a88.645 88.645 0 0 0-1.678 1.575c-.294.303-.594.593-.882.872-1.78 1.712-3.112 3 .076 5.1 1.53 1.009 2.756 1.843 3.978 2.675a277.67 277.67 0 0 0 4.39 2.947c.438.287.856.584 1.266.874 1.553 1.11 2.95 2.104 4.675 1.947 1-.093 2.037-1.034 2.562-3.843 1.241-6.644 3.685-21.032 4.25-26.963a6.602 6.602 0 0 0-.062-1.475 1.582 1.582 0 0 0-.538-1.015c-.447-.366-1.14-.444-1.453-.438-1.41.025-3.572.778-13.987 5.11z" clip-rule="evenodd"/></svg>