<svg xmlns="http://www.w3.org/2000/svg" fill="none" viewBox="0 0 75 75"><path fill="#034694" d="M37.5 0C16.79 0 0 16.79 0 37.5S16.79 75 37.5 75 75 58.21 75 37.5 58.21 0 37.5 0zm14.422 42.309s3.316 3.273 4.133 4.793c.023.03.035.062.043.078.332.558.41.992.246 1.316-.274.54-1.211.805-1.532.828h-5.859c-.406 0-1.258-.105-2.289-.816-.793-.555-1.574-1.465-2.336-2.352-1.137-1.32-2.121-2.46-3.113-2.46-.126 0-.251.019-.371.058-.75.242-1.711 1.312-1.711 4.164 0 .89-.703 1.402-1.2 1.402H35.25c-.914 0-5.676-.32-9.895-4.77-5.164-5.448-9.812-16.378-9.851-16.48-.293-.707.312-1.086.973-1.086h5.918c.789 0 1.046.48 1.226.907.211.496.985 2.468 2.254 4.687 2.059 3.617 3.32 5.086 4.332 5.086.19-.002.376-.05.543-.14 1.32-.735 1.074-5.442 1.016-6.419 0-.183-.004-2.105-.68-3.027-.484-.668-1.309-.922-1.809-1.015.203-.28.47-.506.778-.66.906-.454 2.539-.52 4.16-.52h.902c1.758.023 2.211.137 2.848.297 1.289.308 1.316 1.14 1.203 3.988-.035.809-.07 1.723-.07 2.8 0 .235-.012.485-.012.75-.04 1.45-.086 3.094.937 3.77a.844.844 0 0 0 .446.13c.355 0 1.425 0 4.324-4.974.894-1.6 1.67-3.263 2.324-4.976.059-.102.23-.414.434-.535a1.04 1.04 0 0 1 .484-.113h6.957c.758 0 1.278.113 1.375.406.172.465-.031 1.883-3.207 6.183l-1.418 1.871c-2.879 3.774-2.879 3.965.18 6.829z"/></svg>