<svg width="75" height="75" viewBox="0 0 75 75" fill="none" xmlns="http://www.w3.org/2000/svg">
<path d="M43.7617 36.8477L34.9883 32.7539C34.2227 32.3984 33.5938 32.7969 33.5938 33.6445V41.3555C33.5938 42.2031 34.2227 42.6016 34.9883 42.2461L43.7578 38.1523C44.5273 37.793 44.5273 37.207 43.7617 36.8477ZM37.5 0C16.7891 0 0 16.7891 0 37.5C0 58.2109 16.7891 75 37.5 75C58.2109 75 75 58.2109 75 37.5C75 16.7891 58.2109 0 37.5 0ZM37.5 52.7344C18.3047 52.7344 17.9687 51.0039 17.9687 37.5C17.9687 23.9961 18.3047 22.2656 37.5 22.2656C56.6953 22.2656 57.0312 23.9961 57.0312 37.5C57.0312 51.0039 56.6953 52.7344 37.5 52.7344Z" fill="#034694"/>
</svg>
